<svg id="cc2adaea-9502-4f12-83fe-c054905f8aaa" data-name="7fe20c84-7ae7-486b-bc94-6b9bcc7ec4e8" xmlns="http://www.w3.org/2000/svg" width="140" height="50" viewBox="0 0 140 50"><title>Logo_office_horizontal</title><rect x="35.6" y="34.82" width="7.96" height="7.96" style="fill:#af957e"/><path d="M18.39,19c0,3.42-.79,7.85-5.11,7.85S8.17,22.38,8.17,19c0-3.9.79-8.32,5.11-8.32s5.11,4.43,5.11,8.32m25.16,13.7V15.42A18.28,18.28,0,0,0,43,11.21c-.94-3.85-6-5.79-8.62-5.79-4,0-6.42,1.58-8,4l-.08-.12V6.15H18.39V9.21h-.11C17,6.52,14.75,5.36,11.22,5.36,3.85,5.36,0,12.16,0,18.9c0,6.43,3.69,13.17,10.85,13.17,3,0,5.8-1.05,7.43-3.64h.11c0,.44.07.9.09,1.38V32c-.18,3-1.31,5.74-5.57,5.74-2.16,0-4.27-.9-4.37-3.27H1.05C1.21,41.61,7.48,43,13.33,43c10.08.09,12.43-5,12.87-10.38l.12-15.91c.1-3.85,2.25-6.06,4.7-6.06,3.87,0,4.65,3.21,4.7,6.06V32.65Z" style="fill:#ccbf9d"/><rect x="52.42" y="26.98" width="87.58" height="15.8" style="fill:#af957e"/><path d="M56.63,23.85a5,5,0,0,1-3.15-.77,2.5,2.5,0,0,1-.94-2,2,2,0,0,1,.4-1.3,3.89,3.89,0,0,1,.95-.84,1.54,1.54,0,0,1-.77-1.41,2.22,2.22,0,0,1,.33-1.25,3.47,3.47,0,0,1,.78-.85,2.67,2.67,0,0,1-1-1.07,3.53,3.53,0,0,1-.33-1.59,3,3,0,0,1,1-2.44,3.94,3.94,0,0,1,2.63-.83,4.7,4.7,0,0,1,.85.07,4.9,4.9,0,0,1,.73.19h3v1l-1.35.36a3.65,3.65,0,0,1,.38,1.65,2.94,2.94,0,0,1-.95,2.4,4,4,0,0,1-2.6.79,5.18,5.18,0,0,1-1.29-.14,2.59,2.59,0,0,0-.41.61,1.41,1.41,0,0,0-.17.62.51.51,0,0,0,.15.37.78.78,0,0,0,.55.15h1.73a4.34,4.34,0,0,1,2.67.73,2.62,2.62,0,0,1,1,2.24,3,3,0,0,1-1,2.42,4.68,4.68,0,0,1-3.13.86m-1.57-4.6a2.13,2.13,0,0,0-.56.66,2,2,0,0,0-.22,1,2.64,2.64,0,0,0,.08.69.94.94,0,0,0,.33.49,1.73,1.73,0,0,0,.72.3,5.89,5.89,0,0,0,1.21.1A3,3,0,0,0,58.4,22,1.66,1.66,0,0,0,59,20.63a1.16,1.16,0,0,0-.47-1.09,2.45,2.45,0,0,0-1.26-.28Zm1.47-4.57a1.83,1.83,0,0,0,1.35-.44,2,2,0,0,0,.44-1.47,2,2,0,0,0-.43-1.49,2,2,0,0,0-1.38-.4,1.83,1.83,0,0,0-1.33.43,2.06,2.06,0,0,0-.45,1.5,1.92,1.92,0,0,0,.46,1.45,1.9,1.9,0,0,0,1.34.42" style="fill:#575755"/><path d="M65.86,20.1a3.06,3.06,0,0,1-2.25-.79,3.18,3.18,0,0,1-.8-2.36,3,3,0,0,1,1.09-2.54,6,6,0,0,1,3.57-.83h.83v-.79a6.41,6.41,0,0,0,0-.76,1.39,1.39,0,0,0-.19-.57.93.93,0,0,0-.44-.36,2.08,2.08,0,0,0-.78-.12,4.29,4.29,0,0,0-1.53.28,11.34,11.34,0,0,0-1.41.64l-.67-1.33a9.16,9.16,0,0,1,1.67-.79A6.31,6.31,0,0,1,67,9.48a3.18,3.18,0,0,1,2.25.71A3.08,3.08,0,0,1,70,12.52v7.32H68.68l-.28-1a5.19,5.19,0,0,1-1.07.88,2.71,2.71,0,0,1-1.47.39m.22-1.37a2.15,2.15,0,0,0,1.3-.4,5.88,5.88,0,0,0,.92-.81V14.84h-.61a8,8,0,0,0-1.54.12,2.22,2.22,0,0,0-.93.38,1.25,1.25,0,0,0-.44.67,3.59,3.59,0,0,0-.11.95A2.17,2.17,0,0,0,65,18.35a1.35,1.35,0,0,0,1.08.38" style="fill:#575755"/><path d="M75.84,20.1a5.49,5.49,0,0,1-1.92-.33A5.05,5.05,0,0,1,72.49,19l.73-1.29a5.87,5.87,0,0,0,1.3.68,4,4,0,0,0,1.4.24,2,2,0,0,0,1.41-.39,1.5,1.5,0,0,0,.38-1.1,1.86,1.86,0,0,0-.11-.7,1.13,1.13,0,0,0-.35-.46,2.23,2.23,0,0,0-.66-.33q-.41-.14-1-.3a6.08,6.08,0,0,1-1-.36,2.78,2.78,0,0,1-.83-.58,2.55,2.55,0,0,1-.55-.89,3.62,3.62,0,0,1-.2-1.28,3.06,3.06,0,0,1,.18-1,2.38,2.38,0,0,1,.56-.89,2.67,2.67,0,0,1,1-.61,4.17,4.17,0,0,1,1.43-.22,6.34,6.34,0,0,1,1.57.17,5,5,0,0,1,1.23.49l-.61,1.37a6.07,6.07,0,0,0-1.1-.44,4,4,0,0,0-1-.12q-1.59,0-1.59,1.25a1.65,1.65,0,0,0,.09.59,1,1,0,0,0,.3.4,2,2,0,0,0,.55.3,8.92,8.92,0,0,0,.87.27,10.8,10.8,0,0,1,1.12.37,3.1,3.1,0,0,1,.95.58,2.66,2.66,0,0,1,.66.94,3.59,3.59,0,0,1,.24,1.41,2.8,2.8,0,0,1-.89,2.3,4.17,4.17,0,0,1-2.68.73" style="fill:#575755"/><path d="M81.28,9.74h1.15V7.14l1.73-.38v3h2.08v1.41H84.16v6.63q0,.93.83.93a1.86,1.86,0,0,0,.61-.09l.5-.19.34,1.29a4.81,4.81,0,0,1-.74.27,3.14,3.14,0,0,1-.86.11,3,3,0,0,1-1.72-.47,1.89,1.89,0,0,1-.7-1.68V11.15H81.28Z" style="fill:#575755"/><path d="M89,9.74h1.35l.28,1.43A5.36,5.36,0,0,1,91.85,10a2.83,2.83,0,0,1,1.58-.46h.2a.35.35,0,0,1,.16.05l-.2,1.85-.29-.06-.31,0a2.74,2.74,0,0,0-1.22.25,4.64,4.64,0,0,0-1.08.78v7.42H89Z" style="fill:#575755"/><path d="M99.62,20.1a4.49,4.49,0,0,1-1.68-.3,3.31,3.31,0,0,1-1.3-.94,4.44,4.44,0,0,1-.85-1.64,8.63,8.63,0,0,1-.3-2.44,8.76,8.76,0,0,1,.29-2.42,4.5,4.5,0,0,1,.83-1.65,3.11,3.11,0,0,1,1.29-.94,4.63,4.63,0,0,1,1.68-.29,4.71,4.71,0,0,1,1.69.29,3.17,3.17,0,0,1,1.31.94,4.56,4.56,0,0,1,.85,1.65,8.51,8.51,0,0,1,.3,2.42,8.85,8.85,0,0,1-.29,2.44,4.34,4.34,0,0,1-.84,1.64,3.31,3.31,0,0,1-1.3.94,4.49,4.49,0,0,1-1.68.3m0-1.37a2.57,2.57,0,0,0,1-.18,1.5,1.5,0,0,0,.71-.62,3.56,3.56,0,0,0,.41-1.2,10.84,10.84,0,0,0,.14-1.92,11,11,0,0,0-.14-1.93,3.42,3.42,0,0,0-.42-1.21,1.56,1.56,0,0,0-.72-.62,2.57,2.57,0,0,0-1-.18,2.69,2.69,0,0,0-1,.17,1.46,1.46,0,0,0-.69.61,3.55,3.55,0,0,0-.41,1.21,11,11,0,0,0-.14,1.93,10.77,10.77,0,0,0,.14,1.92,3.5,3.5,0,0,0,.42,1.21,1.55,1.55,0,0,0,.71.63,2.55,2.55,0,0,0,1,.18" style="fill:#575755"/><path d="M106.61,9.74H108l.26,1.25a6.51,6.51,0,0,1,1.42-1.09,3.34,3.34,0,0,1,1.66-.42,2.59,2.59,0,0,1,1.76.58,2.36,2.36,0,0,1,.68,1.87v7.9H112V12.48a1.81,1.81,0,0,0-.27-1.17,1.25,1.25,0,0,0-1-.3,2.54,2.54,0,0,0-1.25.36,6.85,6.85,0,0,0-1.19.85v7.62h-1.73Z" style="fill:#575755"/><path d="M120.68,20.1a4.5,4.5,0,0,1-1.68-.3,3.31,3.31,0,0,1-1.3-.94,4.45,4.45,0,0,1-.85-1.64,8.6,8.6,0,0,1-.3-2.44,8.76,8.76,0,0,1,.29-2.42,4.49,4.49,0,0,1,.83-1.65A3.11,3.11,0,0,1,119,9.77a4.62,4.62,0,0,1,1.68-.29,4.71,4.71,0,0,1,1.69.29,3.18,3.18,0,0,1,1.31.94,4.57,4.57,0,0,1,.85,1.65,8.51,8.51,0,0,1,.3,2.42,8.85,8.85,0,0,1-.29,2.44,4.34,4.34,0,0,1-.84,1.64,3.31,3.31,0,0,1-1.3.94,4.5,4.5,0,0,1-1.68.3m0-1.37a2.56,2.56,0,0,0,1-.18,1.5,1.5,0,0,0,.71-.62,3.55,3.55,0,0,0,.41-1.2,10.77,10.77,0,0,0,.14-1.92,11,11,0,0,0-.14-1.93,3.43,3.43,0,0,0-.42-1.21,1.56,1.56,0,0,0-.72-.62,2.57,2.57,0,0,0-1-.18,2.68,2.68,0,0,0-1,.17,1.45,1.45,0,0,0-.7.61,3.56,3.56,0,0,0-.41,1.21,11,11,0,0,0-.14,1.93,10.83,10.83,0,0,0,.14,1.92,3.5,3.5,0,0,0,.42,1.21,1.55,1.55,0,0,0,.71.63,2.54,2.54,0,0,0,1,.18" style="fill:#575755"/><path d="M126.5,9.74h1.9l1.71,5.78.17.62q.09.34.17.71l.15.7.13.59h0c0-.15.06-.33.11-.55l.15-.71c.05-.25.11-.49.17-.74s.12-.46.19-.67l1.71-5.74h1.79l-3.39,10.1h-1.67Z" style="fill:#575755"/><path d="M137.83,11.09l-1.49-.24V9.74h3.22v10.1h-1.73Zm.83-3.22a1.12,1.12,0,0,1-.86-.35,1.23,1.23,0,0,1-.33-.88,1.24,1.24,0,0,1,.34-.89,1.14,1.14,0,0,1,.87-.36,1.19,1.19,0,0,1,.88.35,1.22,1.22,0,0,1,.35.9,1.19,1.19,0,0,1-.35.88,1.21,1.21,0,0,1-.9.35" style="fill:#575755"/><path d="M58.16,38.29q-3.37,0-3.37-4.66a6.06,6.06,0,0,1,.85-3.52,2.86,2.86,0,0,1,2.49-1.21,2.89,2.89,0,0,1,2.5,1.19,5.88,5.88,0,0,1,.86,3.47q0,4.72-3.33,4.72m0-1a1.63,1.63,0,0,0,1.59-.9,6.39,6.39,0,0,0,.46-2.79,6.67,6.67,0,0,0-.46-2.83,1.62,1.62,0,0,0-1.59-.92,1.65,1.65,0,0,0-1.6.9,6.28,6.28,0,0,0-.47,2.79,6.56,6.56,0,0,0,.47,2.83,1.64,1.64,0,0,0,1.6.92" style="fill:#fff"/><path d="M73.28,31.55H74v-1a2.74,2.74,0,0,1,.14-.94,1.59,1.59,0,0,1,.37-.6,1.3,1.3,0,0,1,.55-.32,2.43,2.43,0,0,1,.68-.09,3,3,0,0,1,.73.09,2.13,2.13,0,0,1,.64.27l-.39.85a1.76,1.76,0,0,0-.81-.21.72.72,0,0,0-.6.22,1.17,1.17,0,0,0-.18.72v1.06h1.23v.92H75.14v5.65H74V32.47h-.72Z" style="fill:#fff"/><path d="M87.75,31.55h.72v-1a2.74,2.74,0,0,1,.14-.94A1.59,1.59,0,0,1,89,29a1.3,1.3,0,0,1,.55-.32,2.43,2.43,0,0,1,.68-.09,3,3,0,0,1,.73.09,2.13,2.13,0,0,1,.64.27l-.39.85a1.76,1.76,0,0,0-.81-.21.72.72,0,0,0-.6.22,1.17,1.17,0,0,0-.18.72v1.06h1.23v.92H89.61v5.65H88.48V32.47h-.72Z" style="fill:#fff"/><path d="M103.15,32.43l-1-.16v-.72h2.1v6.57h-1.13Zm.54-2.1a.73.73,0,0,1-.56-.23.8.8,0,0,1-.22-.57.81.81,0,0,1,.22-.58.74.74,0,0,1,.56-.24.77.77,0,0,1,.57.23.79.79,0,0,1,.23.58.77.77,0,0,1-.23.57.79.79,0,0,1-.58.23" style="fill:#fff"/><path d="M119.14,38.29a2.34,2.34,0,0,1-1.94-.84,4.18,4.18,0,0,1-.67-2.62,6,6,0,0,1,.18-1.6,3,3,0,0,1,.52-1.07,1.91,1.91,0,0,1,.82-.6,3.1,3.1,0,0,1,1.1-.18,2.87,2.87,0,0,1,1,.16,2.45,2.45,0,0,1,.86.58l-.66.78a2.43,2.43,0,0,0-.56-.44,1.47,1.47,0,0,0-.68-.14,1.79,1.79,0,0,0-.64.1.87.87,0,0,0-.43.37,2,2,0,0,0-.24.76,8.89,8.89,0,0,0-.07,1.26,8.07,8.07,0,0,0,.08,1.25,2.07,2.07,0,0,0,.26.77.91.91,0,0,0,.46.39,1.93,1.93,0,0,0,.68.1,1.21,1.21,0,0,0,.67-.17,3.71,3.71,0,0,0,.54-.43l.7.75a2.58,2.58,0,0,1-.84.6,2.75,2.75,0,0,1-1.13.21" style="fill:#fff"/><path d="M135.35,38.29a2.49,2.49,0,0,1-2-.81,4,4,0,0,1-.7-2.66,6,6,0,0,1,.18-1.59,2.93,2.93,0,0,1,.52-1.07,2,2,0,0,1,.81-.6,3.1,3.1,0,0,1,2.1,0,1.84,1.84,0,0,1,.77.56,2.66,2.66,0,0,1,.48,1,6.05,6.05,0,0,1,.16,1.51v.45h-3.82a6.62,6.62,0,0,0,.1,1.11,1.77,1.77,0,0,0,.26.69.93.93,0,0,0,.46.35,2.09,2.09,0,0,0,.69.1,1.9,1.9,0,0,0,.88-.18,4.06,4.06,0,0,0,.67-.44l.62.81a3.1,3.1,0,0,1-2.19.76m-.14-6a1.47,1.47,0,0,0-.52.09.86.86,0,0,0-.39.31,1.85,1.85,0,0,0-.27.6,5,5,0,0,0-.14,1h2.61a5.72,5.72,0,0,0-.07-.94,1.49,1.49,0,0,0-.22-.6.9.9,0,0,0-.4-.32,1.59,1.59,0,0,0-.6-.1" style="fill:#fff"/></svg>